<svg width="22" height="22" fill="none" xmlns="http://www.w3.org/2000/svg"><path d="M20.333 13.667v1h1v-1h-1zM1.666 4.333v-1h-1v1h1zm0 13.334h-1v1h1v-1zm9.667-4a5 5 0 005 5v-2a3 3 0 01-3-3h-2zm5-5a5 5 0 00-5 5h2a3 3 0 013-3v-2zm5 5a5 5 0 00-5-5v2a3 3 0 013 3h2zm-2.568 1.756a2.994 2.994 0 01-2.432 1.244v2a4.995 4.995 0 004.052-2.071l-1.62-1.173zM1.666 5.333h3.333v-2H1.666v2zM4.999 10H1.666v2h3.333v-2zm-2.333 1V4.333h-2V11h2zm4.667-3.333A2.333 2.333 0 014.999 10v2a4.333 4.333 0 004.334-4.333h-2zM4.999 5.333a2.333 2.333 0 012.334 2.334h2a4.333 4.333 0 00-4.334-4.334v2zM1.666 12h4.667v-2H1.666v2zm4.667 4.667H1.666v2h4.667v-2zm-3.667 1V11h-2v6.667h2zm6-3.334a2.333 2.333 0 01-2.333 2.334v2a4.333 4.333 0 004.333-4.334h-2zM6.333 12a2.333 2.333 0 012.333 2.333h2A4.333 4.333 0 006.333 10v2zm6 2.667h8v-2h-8v2zm.666-8h6.667v-2h-6.667v2z" fill="#fff"/></svg>