<svg width="113" height="30" fill="none" xmlns="http://www.w3.org/2000/svg"><path d="M100.468 0L86.495 13.973V0h-24.95a8.733 8.733 0 100 17.465h5.821a3.327 3.327 0 010 6.654H35.762v-6.654h10.812v-5.821H35.762V5.822h12.892V0H29.94v29.94h37.425a9.148 9.148 0 100-18.296h-5.821a2.91 2.91 0 010-5.822h19.128V29.94h5.822v-7.735l5.198-5.198 12.933 12.933h8.233l-17.05-17.05L108.702 0h-8.233z" fill="#fff"/><path fill-rule="evenodd" clip-rule="evenodd" d="M24.535 8.733A8.733 8.733 0 0015.802 0H0v5.822h15.802a2.91 2.91 0 010 5.822H0V29.94h17.05a9.148 9.148 0 005.878-16.16 8.693 8.693 0 001.607-5.048zM5.822 24.119v-6.654h11.227a3.327 3.327 0 010 6.654H5.822z" fill="#fff"/></svg>