<svg width="203" height="72" fill="none" xmlns="http://www.w3.org/2000/svg"><path fill-rule="evenodd" clip-rule="evenodd" d="M12.187 68.251a19.007 19.007 0 014.911-6.862 18.675 18.675 0 017.365-4.016 18.166 18.166 0 018.307-.322 18.288 18.288 0 017.6 3.414 19.011 19.011 0 01-4.911 6.862 18.68 18.68 0 01-7.364 4.017 18.17 18.17 0 01-8.307.322 18.295 18.295 0 01-7.601-3.415zm147.903-7.786a18.297 18.297 0 017.601-3.414 18.175 18.175 0 018.308.322 18.665 18.665 0 017.364 4.015 18.99 18.99 0 014.91 6.863 18.295 18.295 0 01-7.6 3.415 18.168 18.168 0 01-8.306-.322 18.695 18.695 0 01-7.365-4.017 19.03 19.03 0 01-4.912-6.862zm13.533-10.572a18.536 18.536 0 016.469-5.326 18.276 18.276 0 018.12-1.905c2.814 0 5.591.651 8.119 1.905a18.536 18.536 0 016.469 5.327 18.537 18.537 0 01-6.469 5.327 18.276 18.276 0 01-8.119 1.904c-2.815 0-5.592-.651-8.12-1.904a18.537 18.537 0 01-6.469-5.327zM0 49.894a18.536 18.536 0 016.469-5.326 18.277 18.277 0 018.12-1.905c2.814 0 5.59.651 8.119 1.905a18.537 18.537 0 016.47 5.327 18.539 18.539 0 01-6.47 5.327 18.278 18.278 0 01-8.12 1.904c-2.814 0-5.59-.651-8.12-1.904A18.538 18.538 0 010 49.894zM4.274 19.97c2.793-.316 5.62.016 8.267.973a18.464 18.464 0 017.008 4.55 19.503 19.503 0 014.425 7.264 19.71 19.71 0 01.931 8.487 18.242 18.242 0 01-8.268-.972 18.452 18.452 0 01-7.01-4.553 19.47 19.47 0 01-4.425-7.263 19.678 19.678 0 01-.928-8.486zM177.88 41.244a19.691 19.691 0 01.929-8.487 19.485 19.485 0 014.427-7.265 18.47 18.47 0 017.015-4.552 18.258 18.258 0 018.275-.97 19.687 19.687 0 01-.928 8.487 19.45 19.45 0 01-4.429 7.262 18.436 18.436 0 01-7.006 4.555 18.234 18.234 0 01-8.268.973l-.015-.003zM22.483 0a18.91 18.91 0 016.697 5.11 19.24 19.24 0 013.856 7.546c.727 2.789.835 5.706.316 8.542a19.643 19.643 0 01-3.317 7.858 18.907 18.907 0 01-6.696-5.11 19.236 19.236 0 01-3.854-7.546 19.759 19.759 0 01-.31-8.542A19.637 19.637 0 0122.497.003L22.483 0zm150.25 29.056a19.632 19.632 0 01-3.316-7.858 19.75 19.75 0 01.318-8.542 19.238 19.238 0 013.854-7.545A18.902 18.902 0 01180.285 0a19.648 19.648 0 013.318 7.858c.519 2.836.41 5.754-.317 8.542a19.247 19.247 0 01-3.849 7.545 18.914 18.914 0 01-6.689 5.114l-.015-.003z" fill="#6DD0EF"/></svg>