<svg width="159" height="126" fill="none" xmlns="http://www.w3.org/2000/svg"><path opacity=".5" d="M132 107V22a7 7 0 00-7-7H8a7 7 0 00-7 7v85a7 7 0 007 7h117a7 7 0 007-7z" stroke="#fff" stroke-width="2"/><path opacity=".5" d="M137.5 100h.5a7 7 0 007-7V8a7 7 0 00-7-7H21a7 7 0 00-7 7v1.5" stroke="#fff" stroke-width="2" stroke-linecap="round"/><circle opacity=".5" cx="124" cy="23" r="2" stroke="#fff" stroke-width="2"/><circle opacity=".5" cx="117" cy="23" r="2" stroke="#fff" stroke-width="2"/><circle opacity=".5" cx="110" cy="23" r="2" stroke="#fff" stroke-width="2"/><path d="M152.283 96.755l5.131-3.914a1.152 1.152 0 00.43-1.582L151.7 80.735a1.176 1.176 0 00-1.598-.422l-6.037 2.444a19.428 19.428 0 00-1.831-1.298 22.142 22.142 0 00-2.053-.916l-.869-6.388A1.162 1.162 0 00138.143 73h-12.291a1.165 1.165 0 00-1.171 1.155l-.863 6.348a20.94 20.94 0 00-3.884 2.257l-6.031-2.444a1.166 1.166 0 00-1.595.425l-6.147 10.52a1.146 1.146 0 00.087 1.285c.094.12.21.22.343.295l5.168 3.947a20.41 20.41 0 00-.034 4.427l-5.14 3.922a1.145 1.145 0 00-.427 1.58l6.143 10.527a1.177 1.177 0 001.599.415l6.043-2.444c.585.468 1.196.901 1.831 1.299.66.341 1.338.647 2.031.916l.876 6.415a1.166 1.166 0 001.171 1.155h12.288a1.162 1.162 0 001.169-1.155l.869-6.363a21.376 21.376 0 003.868-2.239l6.05 2.444c.268.152.586.193.885.115.298-.079.554-.272.713-.537l6.147-10.53a1.137 1.137 0 00-.43-1.573l-5.165-3.944a20.62 20.62 0 00.037-4.463z" fill="#01215C" stroke="#fff" stroke-width="2" stroke-linecap="round" stroke-linejoin="round"/><path d="M132 107a8 8 0 100-16 8 8 0 000 16z" stroke="#fff" stroke-width="2" stroke-linecap="round" stroke-linejoin="round"/><path d="M22 31l-5 5 5 5m0 49l-5 5 5 5m23-59l5-5-5-5m-17 9.303h10.607M17 53.303h10.607m6.392 0h82M17 64.303h10.607m6.392 0h82M17 75.303h10.607m6.392 0h82M45 100l5-5-5-5m-8 1l-7 9" stroke="#fff" stroke-width="2" stroke-linecap="round"/></svg>