<svg width="133" height="129" fill="none" xmlns="http://www.w3.org/2000/svg"><path opacity=".5" d="M89.5 100H8a7 7 0 01-7-7V8a7 7 0 017-7h117a7 7 0 017 7v85a7 7 0 01-7 7h-10.75" stroke="#fff" stroke-width="2" stroke-linecap="round"/><circle opacity=".5" cx="16.5" cy="16.5" r="4.5" stroke="#fff" stroke-width="2"/><circle opacity=".5" cx="16.5" cy="31.5" r="4.5" stroke="#fff" stroke-width="2"/><circle opacity=".5" cx="16.5" cy="51.5" r="9.5" stroke="#fff" stroke-width="2"/><path d="M95.5 12H51c-5.523 0-10 4.477-10 10v0c0 5.523 4.477 10 10 10h58.75c5.661 0 10.25 4.59 10.25 10.25v0c0 5.66-4.589 10.25-10.25 10.25H51.5C45.701 52.5 41 57.201 41 63v0c0 5.799 4.701 10.5 10.5 10.5H74" stroke="#fff" stroke-width="2"/><path opacity=".5" d="M31 1.5v98M10 74h13v5H10zm0 11h13v5H10z" stroke="#fff" stroke-width="2"/><path clip-rule="evenodd" d="M124.251 116.357l3.283 3.282a1.643 1.643 0 010 2.322l-4.57 4.57a1.64 1.64 0 01-2.322 0l-3.282-3.282 6.891-6.892zm-1.741-1.742l-6.892 6.893-37.563-37.565h-.014L74 73l10.943 4.04v.015l37.567 37.56z" stroke="#fff" stroke-width="2" stroke-linecap="round" stroke-linejoin="round"/></svg>