<svg width="118" height="158" fill="none" xmlns="http://www.w3.org/2000/svg"><path opacity=".5" d="M92 62L60 26m32 36H60V26m32 36v88.458a6.564 6.564 0 01-1.904 4.626A6.478 6.478 0 0185.5 157h-78a6.478 6.478 0 01-4.596-1.916A6.564 6.564 0 011 150.458V32.708a6.56 6.56 0 011.904-4.625C4.123 26.856 6.276 26 8 26h52" stroke="#fff" stroke-width="2" stroke-linecap="round" stroke-linejoin="round"/><path opacity=".5" d="M16 20.813v-3.271c0-1.735.685-3.4 1.904-4.626A6.479 6.479 0 0122.5 11h78c1.724 0 3.377.69 4.596 1.916A6.563 6.563 0 01107 17.542v117.75a6.562 6.562 0 01-1.904 4.625 6.478 6.478 0 01-4.596 1.916h-3.25" stroke="#fff" stroke-width="2" stroke-linecap="round" stroke-linejoin="round"/><path d="M16 101h39M16 86h39m-39 29h39m-39 14h39m7.612-28.708l3.5 3.291 7-6.583m-10.5-11.708l3.5 3.291 7-6.583m-10.5 32.292l3.5 3.29 7-6.58m-10.5 17.29l3.5 3.29 7-6.58" stroke="#fff" stroke-width="2" stroke-linecap="round" stroke-linejoin="round"/></svg>