<svg width="162" height="123" fill="none" xmlns="http://www.w3.org/2000/svg"><path opacity=".5" d="M29 30.5v13" stroke="#fff" stroke-width="2"/><rect opacity=".5" x="44" y="44" width="30" height="30" rx="5" transform="rotate(90 44 44)" stroke="#fff" stroke-width="2" stroke-linecap="round" stroke-linejoin="round" stroke-dasharray="1 5"/><rect x="44" y="81" width="30" height="30" rx="5" transform="rotate(90 44 81)" stroke="#fff" stroke-width="2"/><rect x="81" y="44" width="30" height="30" rx="5" transform="rotate(90 81 44)" stroke="#fff" stroke-width="2"/><rect x="118" y="44" width="12" height="30" rx="5" transform="rotate(90 118 44)" stroke="#fff" stroke-width="2"/><rect x="118" y="81" width="30" height="67" rx="5" transform="rotate(90 118 81)" stroke="#fff" stroke-width="2"/><path d="M89 65h28.5M89 73.5h28.5" stroke="#fff" stroke-width="2"/><rect x="44" y="1" width="30" height="30" rx="5" transform="rotate(90 44 1)" stroke="#fff" stroke-width="2"/><path d="M147.5 46l-8.5 8.5 8.5 8.5" stroke="#fff" stroke-width="2" stroke-linecap="round"/><path d="M118 96h33c5.523 0 10-4.477 10-10V64c0-5.523-4.477-10-10-10h-11" stroke="#fff" stroke-width="2"/><g opacity=".5" stroke="#fff" stroke-width="2"><path d="M10.5 23H8a7 7 0 00-7 7v85a7 7 0 007 7h117a7 7 0 007-7V30a7 7 0 00-7-7H48.5"/><circle cx="124" cy="31" r="2"/><circle cx="117" cy="31" r="2"/><circle cx="110" cy="31" r="2"/></g></svg>