<svg width="183" height="32" fill="none" xmlns="http://www.w3.org/2000/svg"><path d="M65.195 32c-6.63 0-12.783-1.975-16.89-5.637-3.104-2.766-4.595-6.524-4.595-10.391 0-3.821 1.556-7.605 4.594-10.357C52.12 2.162 58.854 0 65.195 0c7.017 0 12.634 1.756 16.927 5.625 3.055 2.753 4.532 6.52 4.532 10.347 0 3.71-1.567 7.66-4.532 10.391C78.124 30.05 71.842 32 65.195 32v-4.22c3.519 0 6.782-1.207 9.062-3.46 2.263-2.237 3.318-4.987 3.318-8.348 0-3.22-1.138-6.23-3.318-8.366-2.25-2.2-5.59-3.438-9.062-3.438-3.482 0-6.826 1.226-9.076 3.438-2.17 2.135-3.31 5.154-3.31 8.366 0 3.201 1.154 6.219 3.31 8.348 2.252 2.226 5.584 3.46 9.076 3.46V32zM16.743.015c-3.546 0-7.575.66-10.998 2.177C2.585 3.592 0 5.857 0 9.61c-.001 3.381 2.162 5.361 2.103 5.306.92.842 2.401 2.274 6.274 3.115 1.731.376 5.431.954 9.116 1.336 3.658.383 7.258.748 8.724 1.116 1.165.295 3.122.696 3.122 2.876 0 2.172-2.062 2.835-2.42 2.978-.358.141-2.831 1.268-7.277 1.268-3.282 0-7.228-.98-8.666-1.491-1.658-.586-3.397-1.362-5.02-3.33-.403-.488-1.04-1.83-1.04-3.159H.893v11.198h4.472V29.31c0-.172.217-.88.968-.544.934.422 3.676 1.506 6.543 2.1 2.35.489 3.866.839 6.789.839 4.768 0 7.33-.772 9.1-1.274 1.669-.475 3.73-1.326 5.405-2.653.907-.717 2.896-2.555 2.896-5.892 0-3.203-1.731-5.191-2.34-5.796-.83-.824-1.843-1.463-2.898-1.955-.92-.43-2.372-.946-3.56-1.235-2.304-.562-7.517-1.256-10.01-1.515-2.613-.27-7.147-.644-8.958-1.2-.55-.17-1.668-.699-1.668-1.99 0-.917.511-1.696 1.523-2.324 1.606-1 4.85-1.62 8.23-1.62 3.998-.016 7.383.892 9.537 1.848.732.325 1.589.792 2.27 1.344.767.621 1.846 1.914 2.235 3.716h3.613V1.412h-4.034v1.133c0 .366-.38.841-1.1.449C28.103 2.053 23 .023 16.743.014zm88.389 1.772l19.675 17.635-.202-11.874c-.02-1.557-.309-2.207-2.005-2.207h-3.699V1.79h16.823v3.552h-3.609c-1.729 0-1.838.55-1.859 2.207l.305 22.688H124.8l-22.662-20.088.005 14.257c.02 1.55.093 2.28 1.7 2.28h4.041v3.55H91.362v-3.55h3.862c1.443 0 1.386-1.366 1.386-2.361V7.684c0-1.075-.152-2.34-2.417-2.34h-3.134V1.787h14.073zm49.815 24.89c.158 0 .86-.02.996-.06a1.23 1.23 0 00.774-.683c.052-.12.077-.654.077-.77l.003-5.613c0-.134-.01-.193-.24-.494-.254-.328-10.306-11.642-10.766-12.14-.572-.619-1.575-1.575-3.099-1.575h-3.496V1.788h19.728v3.55h-2.378c-.55 0-.916.518-.446 1.094 0 0 6.638 7.886 6.701 7.968.062.084.115.104.199.027.083-.078 6.804-7.923 6.857-7.985.32-.38.103-1.1-.586-1.1h-2.44V1.787H183V5.34h-3.612c-1.311 0-1.844.241-2.83 1.348-.451.507-10.61 12.024-10.886 12.336-.145.163-.133.39-.133.526v5.612c0 .114.026.648.077.767.123.289.388.564.776.683.136.042.828.062.986.062h3.695v3.553h-19.627v-3.553l3.502.003h-.001z" fill="#6DD0EF"/></svg>