<svg width="148" height="43" fill="none" xmlns="http://www.w3.org/2000/svg"><path fill-rule="evenodd" clip-rule="evenodd" d="M118.146.895C101.807 2.041 91.867 11.14 91.879 24.94c.012 13.822 13.891 20.902 33.317 16.991 4.051-.815 3.799-.571 4.51-4.348.742-3.931.707-3.976-2.508-3.16-14.33 3.642-23.617-3.364-20.553-15.501 1.615-6.398 6.026-10.65 11.853-11.425 4.655-.62 7.726 1.352 7.96 5.114.101 1.65.12 1.66 2.606 1.66 2.491 0 2.183.483 3.506-5.49 1.48-6.68 1.554-6.279-1.291-6.933-4.298-.988-8.392-1.285-13.133-.953zM8.864 1.802c-.236.377-.824 2.865-.824 3.487 0 .478.196.67 1.22 1.183 1.063.534 1.606 1.354 1.68 2.543.055.888-4.106 20.744-4.962 23.675-.77 2.637-2.047 4.315-3.63 4.768-1.513.433-1.519.44-1.886 1.905-.833 3.327-1.907 3.013 10.281 3.013 11.755 0 10.516.216 11-1.922.552-2.442.487-2.776-.627-3.219-.651-.258-1.45-1.075-1.65-1.687-.147-.446 1.498-8.931 2.137-11.028.117-.381.114-.386 2.11 3.216 5.68 10.241 8.37 13.124 13.326 14.282 1.496.349 12.786.498 13.22.175.27-.202.962-2.702.97-3.51.007-.609-.469-.913-1.624-1.037-2.386-.255-2.714-.598-9.766-10.193-5.39-7.329-5.602-7.643-5.345-7.887 1.514-1.439 14.451-12.013 15.101-12.342 1.048-.531 2.5-.985 3.589-1.121 1.186-.15 1.369-.352 1.708-1.91.655-3.004 1.593-2.722-9.076-2.722-9.664 0-9.253-.034-9.446.782-.726 3.07-.701 3.414.293 3.973 1.546.87 1.55.863-5.67 6.897-8.055 6.733-8.308 6.94-8.365 6.873-.093-.11 2.393-11.24 2.63-11.78.335-.756 1.166-1.52 2.115-1.94 1.05-.466 1.074-.502 1.44-2.197.627-2.899 1.74-2.608-9.983-2.608H9.07l-.207.33zm49.49 0c-.237.377-.825 2.865-.825 3.487 0 .481.11.587 1.176 1.147.495.26.96.652 1.229 1.037.833 1.192.92.647-2.903 18.058-3.786 17.249-3.574 16.137-3.162 16.55.428.43 16.314.465 16.812.037.345-.297 1.134-3.66.977-4.16-.052-.163-.344-.424-.65-.58-2.457-1.26-2.494-1.998-.52-10.416l.078-.33h6.778c5.193 0 6.835-.044 7.024-.184.241-.18 1.566-5.665 1.566-6.483 0-.845.061-.838-7.076-.838-6.133 0-6.54-.015-6.538-.256.002-.142.517-2.609 1.145-5.482l1.142-5.224 4.676-.039c7.043-.059 7.82.313 7.822 3.743 0 1.587.196 1.704 2.738 1.642 1.575-.04 1.984-.095 2.183-.295.233-.234 2.547-10.177 2.547-10.943 0-.852 1.11-.803-18.274-.803H58.561l-.207.332zm79.251-.215c0 .438.008.442.805.442h.806v5.444h1.024V2.029h.806c.797 0 .805-.004.805-.442v-.441h-4.246v.441zm5.71 2.722v3.164h.878l.005-2.244.005-2.244.603 1.288c.765 1.634.902 1.642 1.689.073l.61-1.213.008 2.17.009 2.17H148V1.146h-.449c-.426 0-.484.077-1.151 1.509l-.702 1.508-.753-1.508c-.704-1.409-.783-1.51-1.192-1.51h-.438V4.31z" fill="#6DD0EF"/></svg>