<svg width="169" height="46" fill="none" xmlns="http://www.w3.org/2000/svg"><g opacity=".5" fill="#6DD0EF"><path d="M133.997 13.77l6.254-4.609h-20.933V36.84h20.933v-4.61h-14.959v-7.085h12.759v-4.609h-12.759V13.77h8.705zm-30.477 6.181h-7.269V13.77h11.605l6.254-4.609H90.277V36.84h12.473c6.995 0 11.008-3.169 11.008-8.696 0-5.283-3.637-8.193-10.238-8.193zm-1.039 12.28h-6.23v-7.673h6.23c3.792 0 5.558 1.284 5.558 3.836-.002 2.609-1.871 3.837-5.558 3.837zm54.728-23.07h-11.397V36.84h5.974V29h5.423C164.481 29 169 25.176 169 19.067c0-6.11-4.517-9.906-11.791-9.906zm-.128 15.23h-5.295V13.77h5.295c3.827 0 5.936 1.886 5.936 5.31 0 3.425-2.107 5.31-5.936 5.31zm-77.06 6.457c-1.531.844-3.316 1.292-5.156 1.292-5.386 0-9.294-3.843-9.294-9.139 0-5.295 3.91-9.138 9.294-9.138 2.037 0 3.864.572 5.433 1.7l4.284-3.157-.283-.248c-2.501-2.198-5.845-3.36-9.666-3.36-4.145 0-7.908 1.398-10.594 3.937-2.702 2.552-4.19 6.145-4.19 10.114 0 3.988 1.483 7.633 4.175 10.263 2.7 2.64 6.455 4.093 10.571 4.093 4.307 0 8.067-1.5 10.616-4.233l-3.865-2.848-1.325.724zM41.207 8.938a22.906 22.906 0 012.757 4.573L23.003 28.955l-8.757-5.488v-6.603l8.757 5.488L41.207 8.938zM5.313 23c0-.297.008-.59.023-.885l-5.307-.264a22.92 22.92 0 006.71 17.412l3.762-3.762A17.625 17.625 0 015.313 23zm17.69-17.686c.297 0 .59.01.884.024l.265-5.31A22.93 22.93 0 006.736 6.737L10.5 10.5a17.64 17.64 0 0112.503-5.185zm0 35.374c-.297 0-.59-.007-.885-.023l-.264 5.306a22.93 22.93 0 0017.416-6.708l-3.764-3.762a17.638 17.638 0 01-12.503 5.187z"/><path d="M32.977 8.4l4.474-3.296A22.912 22.912 0 0023.004 0v5.314c3.698 0 7.132 1.14 9.973 3.086zM46.008 23a23.11 23.11 0 00-.369-4.12l-4.952 3.648c.004.157.006.314.006.472 0 5.193-2.25 9.87-5.828 13.11l3.57 3.945c4.651-4.207 7.572-10.29 7.572-17.055zM23.003 40.688c-5.194 0-9.872-2.25-13.112-5.827l-3.946 3.57C10.155 43.079 16.238 46 23.003 46v-5.312zM11.14 9.89L7.57 5.946C2.922 10.154 0 16.236 0 23h5.315c-.002-5.193 2.248-9.87 5.826-13.11z"/></g></svg>