<svg width="150" height="67" fill="none" xmlns="http://www.w3.org/2000/svg"><g opacity=".5" fill="#6DD0EF"><path d="M106.235 5.928v2.434h20.851c1.38 0 3.472 0 4.856 1.403 1.385 1.394 1.385 3.487 1.385 4.89v20.938c0 1.388 0 3.493-1.385 4.882-1.384 1.397-3.476 1.397-4.856 1.397h-10.073c-1.737 0-3.999 0-4.865-1.924-.869-1.914.347-3.66 1.39-5.058l13.548-18.134h-20.851l-8.321 11.163c-1.392 1.87-2.603 3.488-2.603 5.578 0 2.096 1.115 3.608 2.603 5.59l2.09 2.785c2.069 2.79 4.16 5.586 6.935 6.982 2.785 1.391 6.075 1.391 10.594 1.391h9.033c5.202 0 13.025 0 18.227-5.228C150 39.777 150 32.103 150 29.304v-8.373c0-2.793 0-10.47-5.207-15.7-5.202-5.23-13.025-5.23-18.227-5.23h-14.418c-1.384 0-3.123 0-4.506 1.39-1.407 1.397-1.407 3.136-1.407 4.537z"/><path d="M81.245 16.755h20.827l-24.995 33.5H56.245l25-33.5zM0 22.672c0-1.39 0-3.135 1.388-4.534 1.392-1.383 3.12-1.383 4.516-1.383h34.892c4.511 0 7.815 0 10.588 1.383 2.78 1.4 4.862 4.193 6.956 6.98l2.073 2.801c1.476 1.979 2.608 3.488 2.608 5.578 0 2.096-1.206 3.716-2.608 5.59l-8.332 11.168H31.244l13.543-18.152c1.047-1.39 2.26-3.137 1.395-5.066-.875-1.92-3.128-1.92-4.874-1.92H25.002V67H8.334V25.118H0v-2.446z"/></g></svg>