<svg width="77" height="77" fill="none" xmlns="http://www.w3.org/2000/svg"><g opacity=".5" clip-path="url(#clip0)"><path d="M76.635 38.47c0 21.18-17.254 38.533-38.3 38.533C17.308 77.003.037 59.65.037 38.47S17.29-.063 38.336-.063c21.058 0 38.299 17.352 38.299 38.533zm-46.786 4.305l-.047.087.12-.043 7.337-4.35-1.301-.739-6.109 5.045zm33.492 9.916h.138l-.078-.13-22.255-15.048-1.69.957L63.34 52.69zM38.106 11.505l-.06-.087-.065.087-1.548 25.182 1.38.826.293-26.008zm23.207-.217l.048.13a50.706 50.706 0 015.08 5.48c4.833 6.089 7.353 13.787 7.353 21.572 0 6.132-1.63 12.047-4.543 17.396l.398.74-.83.043c-6.369 10.699-18.067 17.44-30.483 17.44-12.434 0-24.068-6.698-30.44-17.44l-.783-.044.324-.739C5.58 52.43 4.303 48.777 3.551 44.95l-.074-.087-.047.13c.493 4.045 1.764 8.003 3.683 11.612 6.265 11.83 17.946 18.789 31.24 18.789 20.18 0 36.64-16.658 36.64-36.924 0-10.395-5.327-20.876-13.554-27.182h-.126zM37.752 3.677C18.95 4.025 3.767 19.464 3.767 38.47c0 5.914 1.613 11.612 4.284 16.83l23.99-19.788 1.967 1.131L7.805 55.996l-.108.261h.294l29.791-16.874-.06 6.045-29.044 10.96c6.156 10.394 17.652 16.83 29.658 16.83 12.066 0 23.41-6.436 29.64-16.83L38.95 45.428l-.078-6.045 29.873 16.874h.26l-.122-.217-26.22-19.397 1.95-1.13L68.62 55.3c2.75-5.176 4.327-10.917 4.327-16.831 0-19.18-15.118-34.228-33.98-34.837l5.032 30.835-5.14 3.045-.372-34.445-.151-.174-.139.174-3.623 32.488-1.932-1.088 5.11-30.791zM13.883 66.782C6.44 59.258 2.155 49.168 2.155 38.47c0-20.05 16.255-36.402 36.18-36.402 17.453 0 32.325 12.699 36.687 29.356l.091.044.048-.087C71.676 13.767 56.31.806 38.336.806 17.753.806.883 17.768.883 38.47c0 10.916 4.82 21.223 12.923 28.443h.108l-.03-.13z" fill="#6DD0EF"/></g><defs><clipPath id="clip0"><path fill="#fff" d="M0 0h77v77H0z"/></clipPath></defs></svg>